<svg width="327" height="538" viewBox="0 0 327 538" xmlns="http://www.w3.org/2000/svg"><title>Combined Shape</title><path d="M135.42 523.62L9.81 398.01c-13.084-13.084-13.086-34.296.002-47.385 13.086-13.086 34.303-13.085 47.386 0l72.104 72.102V215.835c0-18.504 14.997-33.505 33.507-33.505 18.504 0 33.506 15.01 33.506 33.505V423.16l72.603-72.604c13.084-13.085 34.296-13.087 47.385 0 13.085 13.087 13.084 34.304 0 47.387L191.02 523.233a33.713 33.713 0 0 1-3.91 4.688c-7.43 7.43-17.48 10.64-27.174 9.636a33.376 33.376 0 0 1-20.925-9.702 33.736 33.736 0 0 1-3.59-4.233zm51.2-375.09c-13.1 13.1-34.325 13.11-47.41.026-13.087-13.085-13.076-34.313.024-47.412 13.1-13.1 34.326-13.11 47.412-.025 13.085 13.084 13.074 34.31-.025 47.41zm.05-91.267c-13.1 13.1-34.328 13.11-47.413.025-13.086-13.086-13.075-34.313.025-47.412 13.1-13.1 34.326-13.11 47.412-.025 13.085 13.088 13.074 34.315-.025 47.414z" fill="#F2F2F4" fill-rule="evenodd"/></svg>