<?xml version="1.0" encoding="UTF-8"?>
<svg width="18px" height="4px" viewBox="0 0 18 4" version="1.1" xmlns="http://www.w3.org/2000/svg" xmlns:xlink="http://www.w3.org/1999/xlink">
    <!-- Generator: Sketch 51.2 (57519) - http://www.bohemiancoding.com/sketch -->
    <title>Combined Shape</title>
    <desc>Created with Sketch.</desc>
    <defs></defs>
    <g id="Statistics" stroke="none" stroke-width="1" fill="none" fill-rule="evenodd">
        <g id="Desktop" transform="translate(-768.000000, -507.000000)" fill="#CED1D8">
            <g id="languages" transform="translate(556.000000, 466.000000)">
                <path d="M214,45 C212.895431,45 212,44.1045695 212,43 C212,41.8954305 212.895431,41 214,41 C215.104569,41 216,41.8954305 216,43 C216,44.1045695 215.104569,45 214,45 Z M220.666667,45 C219.562097,45 218.666667,44.1045695 218.666667,43 C218.666667,41.8954305 219.562097,41 220.666667,41 C221.771236,41 222.666667,41.8954305 222.666667,43 C222.666667,44.1045695 221.771236,45 220.666667,45 Z M227.333333,45 C226.228764,45 225.333333,44.1045695 225.333333,43 C225.333333,41.8954305 226.228764,41 227.333333,41 C228.437903,41 229.333333,41.8954305 229.333333,43 C229.333333,44.1045695 228.437903,45 227.333333,45 Z" id="Combined-Shape"></path>
            </g>
        </g>
    </g>
</svg>