<svg width="24" height="25" viewBox="0 0 24 25" xmlns="http://www.w3.org/2000/svg"><title>icon-timer-tick</title><path d="M24 4.632L18.48 0l-1.548 1.836 5.52 4.632L24 4.632zM7.056 1.836L5.52 0 0 4.62l1.548 1.836 5.508-4.62zM12 2.568c-5.964 0-10.8 4.836-10.8 10.8s4.824 10.8 10.8 10.8c5.964 0 10.8-4.836 10.8-10.8s-4.836-10.8-10.8-10.8zm0 19.2a8.394 8.394 0 0 1-8.4-8.4c0-4.644 3.756-8.4 8.4-8.4s8.4 3.756 8.4 8.4-3.756 8.4-8.4 8.4zm-1.752-6.564l-2.556-2.556L6.42 13.92l3.816 3.816 7.2-7.2-1.272-1.272-5.916 5.94z" fill="#82A2FF"/></svg>