<svg width="280" height="544" viewBox="0 0 280 544" xmlns="http://www.w3.org/2000/svg"><title>instaroom-watermark</title><path d="M164.838.21c-14.608.928-29.476 5.037-42.397 11.71-5.674 2.946-11.232 6.39-15.626 9.715a82.728 82.728 0 0 1-3.064 2.257c-3.113 2.113-6.39 5.842-8.005 9.073-2.138 4.25-3.136 9.5-2.613 14.013 1.093 9.572 7.672 17.647 16.84 20.664 3.467 1.163 8.693 1.496 12.042.807 4.512-.928 8.123-2.71 12.374-6.058 6.722-5.344 15.462-9.358 24.155-11.116 12.73-2.565 25.557-.903 37.29 4.82 17.03 8.314 28.74 24.085 31.97 43.015.617 3.588.878 11.71.475 15.32-2.684 24.797-20.237 44.94-44.25 50.83-4.845 1.187-7.67 1.52-12.896 1.52-4.204 0-25.723-.595-32.777-.927-1.425-.048-4.75-.166-7.363-.238-2.613-.07-5.867-.19-7.244-.237a821.46 821.46 0 0 0-8.076-.24c-3.064-.094-6.175-.19-6.888-.236-2.256-.143-8.29.332-11.78.95-8.907 1.567-17.315 4.964-25.035 10.142-10.547 7.03-18.718 16.388-24.37 27.86-2.28 4.655-3.326 7.41-4.727 12.35-.57 1.972-4.06 21.425-11.4 63.417-5.82 33.3-12.993 74.295-15.938 91.088-2.92 16.792-7.53 43.014-10.19 58.31C2.665 444.29.36 457.924.215 459.3c-.45 4.11-.164 12.47.57 16.627 4.254 24.108 22.28 43.56 45.795 49.38 2.304.57 60.305 10.83 94.15 16.65 9.5 1.638 16.247 1.78 23.538.498 22.612-3.99 40.995-19.808 48.168-41.422 1.283-3.824 1.853-6.627 4.75-23.205 1.64-9.335 6.556-37.456 10.926-62.467 4.37-25.01 10.807-61.704 14.275-81.536C264.57 206.99 277.99 130.18 278.49 127.354c1.162-6.913 1.66-14.015 1.47-21.354-.427-16.15-4.322-31.685-11.495-46.08-1.97-3.94-3.872-7.17-6.864-11.637-4.702-7.054-8.407-11.495-14.773-17.718-12.85-12.54-27.836-21.282-45.032-26.246C189.61.83 177.07-.574 164.838.21z" fill="#F2F2F4"/></svg>