<svg width="327" height="539" viewBox="0 0 327 539" xmlns="http://www.w3.org/2000/svg"><title>Combined Shape</title><path d="M136.263 524.463l-125.61-125.61c-13.084-13.084-13.087-34.297.002-47.385 13.086-13.086 34.303-13.085 47.386 0l72.104 72.102V216.677c0-18.504 14.998-33.504 33.508-33.504 18.506 0 33.508 15.01 33.508 33.504V424l72.602-72.6c13.085-13.086 34.298-13.088 47.386 0 13.086 13.086 13.085 34.303.002 47.386l-125.29 125.29a33.713 33.713 0 0 1-3.91 4.687c-7.43 7.43-17.48 10.64-27.173 9.634a33.376 33.376 0 0 1-20.925-9.7 33.736 33.736 0 0 1-3.59-4.234zm51.2-375.09c-13.1 13.1-34.326 13.11-47.41.026-13.087-13.087-13.076-34.314.023-47.413 13.1-13.1 34.327-13.11 47.413-.025 13.084 13.086 13.073 34.313-.026 47.412zm.05-91.267c-13.1 13.1-34.328 13.11-47.414.025-13.086-13.085-13.075-34.312.024-47.412 13.1-13.1 34.327-13.11 47.412-.024 13.086 13.085 13.075 34.312-.024 47.412z" fill="#F2F2F4" fill-rule="evenodd"/></svg>