<svg width="24" height="24" viewBox="0 0 24 24" xmlns="http://www.w3.org/2000/svg"><title>Shape</title><path d="M11.24 10.587c-.307.986-.747 2.04-1.347 3.2-.266.506-.56.986-.666 1.386l.146-.053a25.154 25.154 0 0 1 4.454-1.24c-.2-.133-.387-.28-.547-.427-.8-.68-1.493-1.666-2.04-2.866zm8.64 5.08c-.227.253-.627.4-1.213.4-1.014 0-2.667-.307-4-.987-2.294.253-4 .56-5.374 1-.066.027-.146.053-.24.093C7.4 19 6.173 20.267 5.093 20.267c-.213 0-.426-.054-.586-.147l-.64-.413-.04-.067a1.21 1.21 0 0 1-.067-.72c.147-.707.907-1.827 2.507-2.827.253-.186.653-.4 1.186-.653.4-.693.827-1.507 1.28-2.4.68-1.373 1.107-2.733 1.44-3.907V9.12c-.493-1.613-.786-2.587-.293-4.36.12-.507.56-1.027 1.053-1.027h.32c.307 0 .6.107.814.32.88.88.466 3.027.026 4.8-.026.08-.04.147-.053.187.533 1.507 1.293 2.72 2.133 3.413.347.267.734.534 1.16.774.6-.067 1.174-.094 1.72-.094 1.654 0 2.654.294 3.04.92.134.214.2.467.16.734-.013.333-.133.64-.373.88zM21.333 0H2.667A2.657 2.657 0 0 0 0 2.667v18.666A2.667 2.667 0 0 0 2.667 24h18.666A2.667 2.667 0 0 0 24 21.333V2.667C24 1.187 22.8 0 21.333 0zm-2 14.72c-.133-.133-.666-.467-2.533-.467-.093 0-.187 0-.307.134.974.426 1.92.68 2.534.68.093 0 .173-.014.253-.027h.053c.067-.027.107-.04.12-.173-.026-.04-.053-.094-.12-.147zM7.107 16.667c-.28.16-.507.306-.64.413-.947.867-1.547 1.747-1.614 2.253.6-.2 1.387-1.08 2.254-2.666zm4.026-9.214L11.2 7.4c.093-.427.133-.8.213-1.093l.04-.214c.134-.76.107-1.146-.12-1.466l-.2-.067a1.7 1.7 0 0 0-.093.16c-.227.56-.213 1.533.093 2.733z" fill="#91949D"/></svg>