<svg width="26" height="26" viewBox="0 0 26 26" xmlns="http://www.w3.org/2000/svg"><title>icon-attachment</title><path d="M5.222 20.828a6.047 6.047 0 0 1 0-8.556l8.167-8.167a4.4 4.4 0 0 1 6.22 0 4.4 4.4 0 0 1 0 6.223L13 16.938a2.75 2.75 0 0 1-3.89-3.888l5.835-5.834L16.5 8.772l-5.903 5.904c-.428.427.35 1.205.777.777l6.682-6.68a2.206 2.206 0 0 0 0-3.112 2.206 2.206 0 0 0-3.11 0l-8.17 8.168a3.854 3.854 0 0 0 0 5.445 3.854 3.854 0 0 0 5.446 0l7.39-7.39 1.555 1.556-7.39 7.39a6.047 6.047 0 0 1-8.555 0z" fill="#969AA3"/></svg>