<?xml version="1.0" encoding="UTF-8"?>
<svg width="16px" height="20px" viewBox="0 0 16 20" version="1.1" xmlns="http://www.w3.org/2000/svg" xmlns:xlink="http://www.w3.org/1999/xlink">
    <!-- Generator: Sketch 51.2 (57519) - http://www.bohemiancoding.com/sketch -->
    <title>icon-download</title>
    <desc>Created with Sketch.</desc>
    <defs>
        <path d="M5.07106781,0 L14,0 C15.1045695,-2.02906125e-16 16,0.8954305 16,2 L16,18 C16,19.1045695 15.1045695,20 14,20 L2,20 C0.8954305,20 1.3527075e-16,19.1045695 0,18 L0,5.07106781 L5.07106781,-2.22044605e-16 Z" id="path-1"></path>
    </defs>
    <g id="Statistics" stroke="none" stroke-width="1" fill="none" fill-rule="evenodd">
        <g id="Desktop" transform="translate(-1356.000000, -24.000000)">
            <g id="top-bar" transform="translate(278.000000, 24.000000)">
                <g id="icon-download" transform="translate(1078.000000, 0.000000)">
                    <g id="Group">
                        <path d="M5.48528137,1 L1,5.48528137 L1,18 C1,18.5522847 1.44771525,19 2,19 L14,19 C14.5522847,19 15,18.5522847 15,18 L15,2 C15,1.44771525 14.5522847,1 14,1 L5.48528137,1 Z" id="Combined-Shape" stroke="#93969D" stroke-width="2"></path>
                        <g id="Rectangle-3">
                            <mask id="mask-2" fill="white">
                                <use xlink:href="#path-1"></use>
                            </mask>
                            <g id="Mask"></g>
                            <path d="M6.75,-1.68933983 L-1.68933983,6.75 L5.5,6.75 C6.19035594,6.75 6.75,6.19035594 6.75,5.5 L6.75,-1.68933983 Z" stroke="#93969D" stroke-width="1.5" mask="url(#mask-2)"></path>
                        </g>
                        <path d="M9,13 L12,13 L8,17 L4,13 L7,13 L7,9 L9,9 L9,13 Z" id="Combined-Shape" fill="#93969D"></path>
                    </g>
                </g>
            </g>
        </g>
    </g>
</svg>